<?xml version="1.0" encoding="UTF-8"?>
<svg width="14px" height="14px" viewBox="0 0 14 14" version="1.1" xmlns="http://www.w3.org/2000/svg" xmlns:xlink="http://www.w3.org/1999/xlink" xmlns:sketch="http://www.bohemiancoding.com/sketch/ns">
    <g id="Page-1" stroke="none" stroke-width="1" fill="none" fill-rule="evenodd" sketch:type="MSPage">
        <g id="Final" sketch:type="MSLayerGroup" transform="translate(-1.000000, -1.000000)">
            <g id="v1-2-1-home-dashboard" sketch:type="MSShapeGroup">
                <g id="status">
                    <g id="Group">
                        <g id="Widget-Copy-3">
                            <g id="1">
                                <g id="Icons-/-Arrow-Double-/-M">
                                    <g>
                                        <g>
                                            <g id="Direct-/-Icons-/-Arrow-Double-/-M">
                                                <rect id="box" x="0" y="0" width="16" height="16"></rect>
                                                <g id="icon_arrow-double_m" transform="translate(1.000000, 1.000000)" fill="#949494">
                                                    <path d="M7,0 C7.4120206,0 7.67869581,0.16820615 8.01804372,0.50755406 L13.7437184,6.23322877 C14.0854272,6.57493753 14.0854272,7.12895688 13.7437184,7.47066564 C13.4020097,7.8123744 12.8479903,7.8123744 12.5062816,7.47066564 L7,1.96438407 L1.49371843,7.47066564 C1.15200968,7.8123744 0.59799032,7.8123744 0.25628157,7.47066564 C-0.085427189,7.12895688 -0.085427189,6.57493753 0.25628157,6.23322877 L6.00240491,0.48710543 C6.33493661,0.15457373 6.5879794,0 7,0 Z M7,6 C7.4120206,6 7.67869581,6.16820615 8.01804372,6.50755406 L13.7437184,12.2332288 C14.0854272,12.5749375 14.0854272,13.1289569 13.7437184,13.4706656 C13.4020097,13.8123744 12.8479903,13.8123744 12.5062816,13.4706656 L7,7.96438407 L1.49371843,13.4706656 C1.15200968,13.8123744 0.59799032,13.8123744 0.25628157,13.4706656 C-0.085427189,13.1289569 -0.085427189,12.5749375 0.25628157,12.2332288 L6.00240491,6.48710543 C6.33493661,6.15457373 6.5879794,6 7,6 Z" id="path-1"></path>
                                                </g>
                                            </g>
                                        </g>
                                    </g>
                                </g>
                            </g>
                        </g>
                    </g>
                </g>
            </g>
        </g>
    </g>
</svg>