<svg xmlns="http://www.w3.org/2000/svg" xmlns:xlink="http://www.w3.org/1999/xlink"><defs><path d="M-42.5 91C18.527 91 68 41.527 68-19.5S18.527-130-42.5-130-153-80.527-153-19.5-103.527 91-42.5 91z" id="a"/><mask id="b" x="0" y="0" width="221" height="221" fill="#fff"><use xlink:href="#a"/></mask><path d="M110.5 221c61.027 0 110.5-49.473 110.5-110.5S171.527 0 110.5 0 0 49.473 0 110.5 49.473 221 110.5 221z" id="a"/><mask id="b" x="0" y="0" width="221" height="221" fill="#fff"><use xlink:href="#a"/></mask><circle id="b" cx="111" cy="111" r="89"/><filter x="-3.9%" y="-2.8%" width="107.9%" height="107.9%" filterUnits="objectBoundingBox" id="a"><feOffset dy="2" in="SourceAlpha" result="shadowOffsetOuter1"/><feGaussianBlur stdDeviation="2" in="shadowOffsetOuter1" result="shadowBlurOuter1"/><feColorMatrix values="0 0 0 0 0.524208121 0 0 0 0 0.475951723 0 0 0 0 0.279116418 0 0 0 0.446388134 0" in="shadowBlurOuter1"/></filter><path d="M-42.5 91C18.527 91 68 41.527 68-19.5S18.527-130-42.5-130-153-80.527-153-19.5-103.527 91-42.5 91z" id="a"/><mask id="b" x="0" y="0" width="221" height="221" fill="#fff"><use xlink:href="#a"/></mask></defs><symbol id="arrow-double" viewBox="0 0 16 16"><path d="M8 1c.412 0 .679.168 1.018.508l5.726 5.725a.875.875 0 1 1-1.238 1.238L8 2.964 2.494 8.471a.875.875 0 1 1-1.238-1.238l5.746-5.746C7.335 1.155 7.588 1 8 1zm0 6c.412 0 .679.168 1.018.508l5.726 5.725a.875.875 0 1 1-1.238 1.238L8 8.964l-5.506 5.507a.875.875 0 1 1-1.238-1.238l5.746-5.746C7.335 7.155 7.588 7 8 7z"/></symbol><symbol id="arrow-down" viewBox="0 0 14 14"><path d="M7.5 11.727c-.386 0-.624-.155-.935-.487L1.178 5.494a.917.917 0 0 1 0-1.238.785.785 0 0 1 1.16 0L7.5 9.763l5.162-5.507a.785.785 0 0 1 1.16 0c.32.342.32.896 0 1.238l-5.368 5.725c-.318.34-.568.508-.954.508z"/></symbol><symbol id="arrow-left" viewBox="0 0 14 16"><path d="M3.91 7.863c0-.386.154-.623.487-.935l5.746-5.387a.917.917 0 0 1 1.237 0c.342.32.342.84 0 1.16L5.874 7.863l5.506 5.163c.342.32.342.84 0 1.16a.917.917 0 0 1-1.237 0L4.417 8.818c-.34-.318-.507-.568-.507-.955z"/></symbol><symbol id="arrow" viewBox="0 0 12 8"><path d="M.311 5.944L5.036.59c.335-.38.492-.478.68-.543a.858.858 0 0 1 .568 0c.188.065.345.163.68.543l4.725 5.353a1.32 1.32 0 0 1 0 1.703c-.2.226-.47.353-.752.353H1.063C.476 8 0 7.46 0 6.795c0-.32.112-.626.311-.851z" fill="#333" fill-rule="nonzero"/></symbol><symbol id="circle-temp-gray" viewBox="0 0 64 75"><title>Oval Copy</title><use mask="url(#b)" xlink:href="#a" transform="translate(-1 -1)" stroke="#333" stroke-width="48" fill="none" fill-rule="evenodd" opacity=".699" stroke-dasharray="1,4"/></symbol><symbol id="circle-temp" viewBox="0 0 221 221"><use mask="url(#b)" xlink:href="#a" stroke="#F5A623" stroke-width="48" fill="none" fill-rule="evenodd" opacity=".699" stroke-dasharray="1,4"/></symbol><symbol id="circle" viewBox="0 0 186 186"><g transform="translate(-18 -20)" fill="none" fill-rule="evenodd"><use fill="#000" filter="url(#a)" xlink:href="#b"/><use fill="#FEFEFE" xlink:href="#b"/></g></symbol><symbol id="cloud" viewBox="0 0 26 26"><g fill="none" fill-rule="evenodd"><path d="M0 0h26v26H0z"/><g stroke="#333" stroke-linecap="round" stroke-linejoin="round" stroke-width="3"><path d="M15 20v2M15 13v2M10 22v2M10 15v2M21 17.58A5 5 0 0 0 19 8h-1.26A8 8 0 1 0 5 16.25"/></g></g></symbol><symbol id="menu" viewBox="0 0 16 14"><path d="M0 3.326a.995.995 0 0 1 1-.993h14c.552 0 1 .44 1 .993v.681A.995.995 0 0 1 15 5H1c-.552 0-1-.44-1-.993v-.68zM0 8.66a.995.995 0 0 1 1-.993h14c.552 0 1 .44 1 .993v.68a.995.995 0 0 1-1 .993H1c-.552 0-1-.44-1-.993v-.68zm0 5.333A.995.995 0 0 1 1 13h14c.552 0 1 .44 1 .993v.68a.995.995 0 0 1-1 .994H1c-.552 0-1-.44-1-.993v-.681z"/></symbol><symbol id="scheduled" viewBox="0 0 24 24"><g fill="none" fill-rule="evenodd"><path d="M0 0h24v24H0z"/><g transform="translate(2 2)" stroke="#000" stroke-linecap="round" stroke-linejoin="round" stroke-width="2"><circle cx="10" cy="10" r="10"/><path opacity=".3" d="M10 4v6l3 3"/></g></g></symbol><symbol id="sun" viewBox="0 0 24 24"><g fill="none" fill-rule="evenodd"><path d="M0 0h24v24H0z"/><g transform="translate(1 1)" stroke="#333" stroke-linecap="round" stroke-linejoin="round" stroke-width="2"><circle stroke-opacity=".4" cx="11" cy="11" r="5"/><path d="M11 0v2M11 20v2M3.22 3.22l1.42 1.42M17.36 17.36l1.42 1.42M0 11h2M20 11h2M3.22 18.78l1.42-1.42M17.36 4.64l1.42-1.42" stroke-opacity=".1"/></g></g></symbol><symbol id="sun_2" viewBox="0 0 24 24"><g fill="none" fill-rule="evenodd"><path d="M0 0h24v24H0z"/><g transform="translate(1 1)" stroke-linecap="round" stroke-linejoin="round" stroke-width="2"><circle stroke="#F5A623" cx="11" cy="11" r="5"/><path d="M11 0v2M11 20v2M3.22 3.22l1.42 1.42M17.36 17.36l1.42 1.42M0 11h2M20 11h2M3.22 18.78l1.42-1.42M17.36 4.64l1.42-1.42" stroke="#FFD93E"/></g></g></symbol><symbol id="sun_max" viewBox="0 0 36 36"><g transform="translate(2 2)" stroke="#FFF" stroke-width="3" fill="none" fill-rule="evenodd" stroke-linecap="round" stroke-linejoin="round"><circle cx="16" cy="16" r="7.273"/><path d="M16 0v2.91M16 29.09V32M4.684 4.684l2.065 2.065M25.25 25.25l2.066 2.066M0 16h2.91M29.09 16H32M4.684 27.316l2.065-2.065M25.25 6.75l2.066-2.066"/></g></symbol><symbol id="sun_min" viewBox="0 0 36 36"><g transform="translate(3 3)" stroke="#FFF" stroke-width="2" fill="none" fill-rule="evenodd" stroke-linecap="round" stroke-linejoin="round"><circle cx="15" cy="15" r="7.273"/><path d="M15 1v.91M15 28.09V29M5 5l.75.75M24.25 24.25L25 25M1 15h.91M28.09 15H29M5 25l.75-.75M24.25 5.75L25 5"/></g></symbol><symbol id="temperature" viewBox="0 0 24 24"><g fill="none" fill-rule="evenodd"><path d="M0 0h24v24H0z"/><path d="M14 14.76V3.5a2.5 2.5 0 1 0-5 0v11.26a4.5 4.5 0 1 0 5 0z" stroke-opacity=".4" stroke="#333" stroke-width="2" stroke-linecap="round" stroke-linejoin="round"/><circle fill-opacity=".1" fill="#333" fill-rule="nonzero" cx="11.5" cy="18.5" r="3.5"/></g></symbol><symbol id="temperature_2" viewBox="0 0 24 24"><g fill="none" fill-rule="evenodd"><path d="M0 0h24v24H0z"/><g transform="translate(7 1)"><path d="M7 13.76V2.5a2.5 2.5 0 0 0-5 0v11.26a4.5 4.5 0 1 0 5 0z" stroke="#F5A623" stroke-width="2" stroke-linecap="round" stroke-linejoin="round"/><circle fill="#FFD93E" fill-rule="nonzero" cx="4.5" cy="17.5" r="3.5"/></g></g></symbol><symbol id="welcome-bg@2x" viewBox="0 0 64 75"><title>Oval Copy</title><use mask="url(#b)" xlink:href="#a" transform="translate(-1 -1)" stroke="#333" stroke-width="48" fill="none" fill-rule="evenodd" opacity=".699" stroke-dasharray="1,4"/></symbol></svg>