<svg xmlns="http://www.w3.org/2000/svg" xmlns:xlink="http://www.w3.org/1999/xlink"><defs><path d="M-42.5 91C18.527 91 68 41.527 68-19.5S18.527-130-42.5-130-153-80.527-153-19.5-103.527 91-42.5 91z" id="a"/><mask id="b" x="0" y="0" width="221" height="221" fill="#fff"><use xlink:href="#a"/></mask><path d="M110.5 221c61.027 0 110.5-49.473 110.5-110.5S171.527 0 110.5 0 0 49.473 0 110.5 49.473 221 110.5 221z" id="a"/><mask id="b" x="0" y="0" width="221" height="221" fill="#fff"><use xlink:href="#a"/></mask><path d="M7.5 11.727c-.386 0-.623-.155-.935-.487L1.178 5.494a.917.917 0 0 1 0-1.238.785.785 0 0 1 1.16 0L7.5 9.763l5.162-5.507a.785.785 0 0 1 1.16 0c.32.342.32.896 0 1.238l-5.368 5.725c-.318.34-.568.508-.954.508z" id="a"/><path d="M7.5 11.727c-.386 0-.623-.155-.935-.487L1.178 5.494a.917.917 0 0 1 0-1.238.785.785 0 0 1 1.16 0L7.5 9.763l5.162-5.507a.785.785 0 0 1 1.16 0c.32.342.32.896 0 1.238l-5.368 5.725c-.318.34-.568.508-.954.508z" id="a"/><circle id="b" cx="111" cy="111" r="89"/><filter x="-3.9%" y="-2.8%" width="107.9%" height="107.9%" filterUnits="objectBoundingBox" id="a"><feOffset dy="2" in="SourceAlpha" result="shadowOffsetOuter1"/><feGaussianBlur stdDeviation="2" in="shadowOffsetOuter1" result="shadowBlurOuter1"/><feColorMatrix values="0 0 0 0 0.524208121 0 0 0 0 0.475951723 0 0 0 0 0.279116418 0 0 0 0.446388134 0" in="shadowBlurOuter1"/></filter><path d="M0 3.326a.995.995 0 0 1 1-.993h14c.552 0 1 .44 1 .993v.681A.995.995 0 0 1 15 5H1c-.552 0-1-.44-1-.993v-.68zM0 8.66a.995.995 0 0 1 1-.993h14c.552 0 1 .44 1 .993v.68a.995.995 0 0 1-1 .993H1c-.552 0-1-.44-1-.993v-.68zm0 5.333A.995.995 0 0 1 1 13h14c.552 0 1 .44 1 .993v.68a.995.995 0 0 1-1 .994H1c-.552 0-1-.44-1-.993v-.681z" id="a"/></defs><symbol id="Oval Copy@1x" viewBox="0 0 64 75"><title>Oval Copy</title><use mask="url(#b)" xlink:href="#a" transform="translate(-1 -1)" stroke="#333" stroke-width="48" fill="none" fill-rule="evenodd" opacity=".699" stroke-dasharray="1,4"/></symbol><symbol id="Oval@1x" viewBox="0 0 221 221"><title>Oval@2x</title><use mask="url(#b)" xlink:href="#a" stroke="#F5A623" stroke-width="48" fill="none" fill-rule="evenodd" opacity=".699" stroke-dasharray="1,4"/></symbol><symbol id="arrow-down" viewBox="0 0 9 14"><title>Icons / Arrow Right / M Copy@2x</title><g fill="none" fill-rule="evenodd"><path fill="#none" d="M-1283-608H83v829h-1366z"/><g transform="matrix(-1 0 0 1 12 -1)" opacity=".3"><path d="M0 0h15v16H0z"/><mask id="b" fill="#fff"><use xlink:href="#a"/></mask><g mask="url(#b)" fill="#333"><path d="M-76.875-57h169V73h-169z"/></g></g></g></symbol><symbol id="arrow-left" viewBox="0 0 9 14"><title>Icons / Arrow Right / M Copy@2x</title><g fill="none" fill-rule="evenodd"><path fill="#none" d="M-1283-608H83v829h-1366z"/><g transform="matrix(-1 0 0 1 12 -1)" opacity=".3"><path d="M0 0h15v16H0z"/><use fill="#000" fill-rule="nonzero" transform="matrix(0 1 1 0 -.363 .363)" xlink:href="#a"/></g></g></symbol><symbol id="background" viewBox="0 0 186 186"><title>background</title><g transform="translate(-18 -20)" fill="none" fill-rule="evenodd"><use fill="#000" filter="url(#a)" xlink:href="#b"/><use fill="#FEFEFE" xlink:href="#b"/></g></symbol><symbol id="cloud-drizzle" viewBox="0 0 26 26"><title>cloud-drizzle</title><g fill="none" fill-rule="evenodd"><path fill="#F8F8F8" d="M-212-365h1366v768H-212z"/><path d="M0 0h26v26H0z"/><g stroke="#333" stroke-linecap="round" stroke-linejoin="round" stroke-width="3"><path d="M15 20v2M15 13v2M10 22v2M10 15v2M21 17.58A5 5 0 0 0 19 8h-1.26A8 8 0 1 0 5 16.25"/></g></g></symbol><symbol id="icon_list_m@1x" viewBox="0 0 16 14"><title>icon_list_m</title><use fill="#333" xlink:href="#a" transform="translate(0 -2)" fill-rule="evenodd"/></symbol><symbol id="icon_scheduled" viewBox="0 0 24 24"><title>icon_scheduled</title><g fill="none" fill-rule="evenodd"><path fill="#F8F8F8" d="M-925-250H441v768H-925z"/><path d="M0 0h24v24H0z"/><g transform="translate(2 2)" stroke="#000" stroke-linecap="round" stroke-linejoin="round" stroke-width="2"><circle cx="10" cy="10" r="10"/><path opacity=".3" d="M10 4v6l3 3"/></g></g></symbol><symbol id="icon_sun" viewBox="0 0 24 24"><title>icon_sun</title><g fill="none" fill-rule="evenodd"><path fill="#F8F8F8" d="M-464-404H902v768H-464z"/><path d="M0 0h24v24H0z"/><g transform="translate(1 1)" stroke="#333" stroke-linecap="round" stroke-linejoin="round" stroke-width="2"><circle stroke-opacity=".4" cx="11" cy="11" r="5"/><path d="M11 0v2M11 20v2M3.22 3.22l1.42 1.42M17.36 17.36l1.42 1.42M0 11h2M20 11h2M3.22 18.78l1.42-1.42M17.36 4.64l1.42-1.42" stroke-opacity=".1"/></g></g></symbol><symbol id="icon_sun_2" viewBox="0 0 24 24"><title>icon_sun_2</title><g fill="none" fill-rule="evenodd"><path fill="#F8F8F8" d="M-1140-250H226v768h-1366z"/><path d="M0 0h24v24H0z"/><g transform="translate(1 1)" stroke-linecap="round" stroke-linejoin="round" stroke-width="2"><circle stroke="#F5A623" cx="11" cy="11" r="5"/><path d="M11 0v2M11 20v2M3.22 3.22l1.42 1.42M17.36 17.36l1.42 1.42M0 11h2M20 11h2M3.22 18.78l1.42-1.42M17.36 4.64l1.42-1.42" stroke="#FFD93E"/></g></g></symbol><symbol id="icon_sun_max" viewBox="0 0 36 36"><title>icon_sun_max</title><g transform="translate(2 2)" stroke="#FFF" stroke-width="3" fill="none" fill-rule="evenodd" stroke-linecap="round" stroke-linejoin="round"><circle cx="16" cy="16" r="7.273"/><path d="M16 0v2.91M16 29.09V32M4.684 4.684l2.065 2.065M25.25 25.25l2.066 2.066M0 16h2.91M29.09 16H32M4.684 27.316l2.065-2.065M25.25 6.75l2.066-2.066"/></g></symbol><symbol id="icon_sun_min" viewBox="0 0 36 36"><title>icon_sun_min</title><g transform="translate(3 3)" stroke="#FFF" stroke-width="2" fill="none" fill-rule="evenodd" stroke-linecap="round" stroke-linejoin="round"><circle cx="15" cy="15" r="7.273"/><path d="M15 1v.91M15 28.09V29M5 5l.75.75M24.25 24.25L25 25M1 15h.91M28.09 15H29M5 25l.75-.75M24.25 5.75L25 5"/></g></symbol><symbol id="icon_temperature" viewBox="0 0 24 24"><title>icon_temperature</title><g fill="none" fill-rule="evenodd"><path fill="#F8F8F8" d="M-464-269H902v768H-464z"/><g><path d="M0 0h24v24H0z"/><path d="M14 14.76V3.5a2.5 2.5 0 1 0-5 0v11.26a4.5 4.5 0 1 0 5 0z" stroke-opacity=".4" stroke="#333" stroke-width="2" stroke-linecap="round" stroke-linejoin="round"/><circle fill-opacity=".1" fill="#333" fill-rule="nonzero" cx="11.5" cy="18.5" r="3.5"/></g></g></symbol><symbol id="icon_temperature_2" viewBox="0 0 24 24"><title>icon_temperature_2</title><g fill="none" fill-rule="evenodd"><path fill="#F8F8F8" d="M-925-365H441v768H-925z"/><path d="M0 0h24v24H0z"/><g transform="translate(7 1)"><path d="M7 13.76V2.5a2.5 2.5 0 0 0-5 0v11.26a4.5 4.5 0 1 0 5 0z" stroke="#F5A623" stroke-width="2" stroke-linecap="round" stroke-linejoin="round"/><circle fill="#FFD93E" fill-rule="nonzero" cx="4.5" cy="17.5" r="3.5"/></g></g></symbol><symbol id="&#x42F;&#x43D;&#x434;&#x435;&#x43A;&#x441; &#x414;&#x43E;&#x43C;" viewBox="0 0 108 27"><title>&#x42F;&#x43D;&#x434;&#x435;&#x43A;&#x441; &#x414;&#x43E;&#x43C;</title><g fill="none" fill-rule="evenodd"><path fill="#F8F8F8" d="M-40-105h1366v768H-40z"/><text transform="translate(-40 -33)" font-family="YandexSansLogotype-Light, Yandex Sans Logotype" font-size="31" font-weight="300"><tspan x="40" y="56" fill="#F00">&#x42F;</tspan> <tspan x="53.082" y="56" fill="#333">&#x43D;&#x434;&#x435;&#x43A;&#x441; &#x414;&#x43E;&#x43C;</tspan></text></g></symbol></svg>